<svg xmlns="http://www.w3.org/2000/svg" width="75" height="75" viewBox="0 0 75 75">
  <defs>
    <style>
      .cls-1 {
        fill: none;
      }

      .cls-2 {
        fill: #9e9e9e;
      }
    </style>
  </defs>
  <title>icon1</title>
  <g id="Camada_2" data-name="Camada 2">
    <g id="Logo">
      <rect class="cls-1" width="75" height="75"/>
      <g>
        <path class="cls-2" d="M9.75,66.62c-.08-.2-.3-.21-.44-.32a1.8,1.8,0,0,1-.75-1.93A1.82,1.82,0,0,1,10.23,63h.11c.43,0,1,.18,1.25-.09s.24-.77.34-1.17c.37-1.46.73-2.92,1.1-4.38a1.86,1.86,0,0,1,2.06-1.61c1.89,0,3.78,0,5.66,0,.33,0,.47,0,.45-.42a15.61,15.61,0,0,1,0-1.81c0-.39-.07-.51-.48-.51-1.57,0-3.13,0-4.7,0A1.88,1.88,0,0,1,14,51.43a1.8,1.8,0,0,1,1.56-2c.39-.09.24-.33.24-.51a20.55,20.55,0,0,1,1.14-7.34A21.52,21.52,0,0,1,33.14,27.2a17.48,17.48,0,0,1,2.17-.33c.29,0,.4-.1.39-.4,0-.7,0-1.4,0-2.1,0-.33-.14-.36-.4-.35-.75,0-1.51,0-2.26,0a1.81,1.81,0,1,1,0-3.62h9A1.81,1.81,0,1,1,42,24c-.76,0-1.51,0-2.27,0-.36,0-.44.11-.42.45q0,1,0,2c0,.32.1.39.41.43C48.25,28,54.23,32.51,57.66,40.38a20.12,20.12,0,0,1,1.58,8.5c0,.35,0,.5.44.59a1.77,1.77,0,0,1,1.37,1.94A1.81,1.81,0,0,1,59.24,53c-1.64,0-3.28,0-4.93,0-.44,0-.53.13-.51.53a12.92,12.92,0,0,1,0,1.76c0,.39.13.45.48.45,1.87,0,3.74,0,5.6,0A1.87,1.87,0,0,1,62,57.38c.43,1.71.87,3.43,1.28,5.15.08.34.2.52.59.47a5,5,0,0,1,1,0,2,2,0,0,1,1.63,1.35v1A2.59,2.59,0,0,1,65,66.62ZM37.46,49.4c5.89,0,11.78,0,17.67,0,.39,0,.51-.07.51-.49a21.2,21.2,0,0,0-.47-4.49,18.13,18.13,0,0,0-35.8,4.36c0,.48.08.62.6.62C25.8,49.39,31.63,49.4,37.46,49.4ZM59.64,63c-.25-1-.52-2-.72-3-.1-.48-.27-.65-.8-.65q-20.61,0-41.23,0h-.45a.2.2,0,0,0-.23.19c-.28,1.13-.56,2.26-.84,3.41ZM37.5,53c-4.06,0-8.12,0-12.17,0-.43,0-.56.1-.52.52a10,10,0,0,1,0,1.64c0,.48.12.58.58.58H46.51c1.09,0,2.19,0,3.28,0,.32,0,.42-.08.41-.41a15.61,15.61,0,0,1,0-1.81c0-.43-.1-.52-.52-.52C45.62,53,41.56,53,37.5,53Z"/>
        <path class="cls-2" d="M66.5,38.18a2.42,2.42,0,0,1-2.59,1.26c-.92-.06-1.85,0-2.77,0a1.83,1.83,0,0,1-1.89-1.84,1.81,1.81,0,0,1,1.88-1.78c1,0,2,0,3,0a2.16,2.16,0,0,1,2.37,1.37Z"/>
        <path class="cls-2" d="M39.31,12.23c0,.61,0,1.21,0,1.81a1.81,1.81,0,1,1-3.62,0c0-1.2,0-2.41,0-3.61a1.81,1.81,0,1,1,3.62,0C39.33,11,39.31,11.63,39.31,12.23Z"/>
        <path class="cls-2" d="M12.19,35.8c.58,0,1.16,0,1.75,0a1.81,1.81,0,0,1,1.81,1.78,1.79,1.79,0,0,1-1.82,1.83c-1.2,0-2.41,0-3.61,0a1.81,1.81,0,1,1,0-3.61C10.94,35.79,11.56,35.8,12.19,35.8Z"/>
        <path class="cls-2" d="M18.28,16.58a1.74,1.74,0,0,1,1.23.49c.9.89,1.8,1.76,2.67,2.68a1.8,1.8,0,0,1-2.52,2.56c-.95-.89-1.87-1.81-2.75-2.76a1.64,1.64,0,0,1-.25-1.94A1.76,1.76,0,0,1,18.28,16.58Z"/>
        <path class="cls-2" d="M58.54,18.38a1.86,1.86,0,0,1-.55,1.3c-.85.85-1.69,1.72-2.56,2.56a1.8,1.8,0,0,1-2.57-2.53c.86-.9,1.74-1.78,2.63-2.63a1.69,1.69,0,0,1,2-.32A1.75,1.75,0,0,1,58.54,18.38Z"/>
      </g>
    </g>
  </g>
</svg>
