<svg xmlns="http://www.w3.org/2000/svg" width="75" height="75" viewBox="0 0 75 75">
  <defs>
    <style>
      .cls-1 {
        fill: none;
      }

      .cls-2 {
        fill: #9e9e9e;
        stroke: #9e9e9e;
        stroke-miterlimit: 10;
      }
    </style>
  </defs>
  <title>icon2_1</title>
  <g id="Camada_2" data-name="Camada 2">
    <g id="Logo">
      <rect class="cls-1" width="75" height="75"/>
      <g>
        <path class="cls-2" d="M59.77,20.36a11.4,11.4,0,0,0-.08-1.65,5.07,5.07,0,0,0-8.09-3.45,5.14,5.14,0,0,0-2.05,4.43c0,3,0,5.94,0,8.91a6.25,6.25,0,0,1-.72,3.14,5.74,5.74,0,0,1-4.14,2.95V21.84c0-2.12,0-4.23,0-6.35a7.2,7.2,0,0,0-4.89-6.88c-.45-.15-.92-.25-1.38-.38H36.46s0,.08-.06.09c-4.08,1-6.11,3.54-6.11,7.74V43a5.5,5.5,0,0,1-2.92-1.39,6,6,0,0,1-1.95-4.69c0-3.26.12-6.52-.06-9.78a5.09,5.09,0,0,0-10.14.8c0,2.86,0,5.72,0,8.57a22,22,0,0,0,.2,3.14A16,16,0,0,0,29.9,53.27c.27,0,.4.06.4.38q0,5.46,0,10.92c0,.29-.1.35-.36.34H27.65c-.67,0-1.07.37-1.07.93a1,1,0,0,0,1.07.93H47.32c.67,0,1.08-.37,1.08-.93s-.39-.92-1.06-.93-1.42,0-2.12,0c-.47,0-.54-.15-.54-.57q0-8.58,0-17.15c0-.59,0-1.18,0-1.77,0-.36.08-.51.46-.51a8.69,8.69,0,0,0,1.25-.14,15.88,15.88,0,0,0,8.71-4.54,15.41,15.41,0,0,0,4.58-10.11C59.89,26.88,59.73,23.62,59.77,20.36Zm-1.91,9.05A14.12,14.12,0,0,1,47,42.74a13.29,13.29,0,0,1-2.82.37c-1.1,0-1.38.31-1.38,1.4,0,6.57,0,13.15,0,19.72,0,.54-.11.7-.68.69q-4.62,0-9.26,0c-.55,0-.73-.1-.73-.7,0-3.77,0-7.55,0-11.32,0-1.18-.24-1.42-1.44-1.45A14.16,14.16,0,0,1,17.24,39.28a15.79,15.79,0,0,1-.13-2.05c0-3.13,0-6.25,0-9.38a3.22,3.22,0,1,1,6.42-.36c.06,2.23,0,4.46,0,6.69a36.1,36.1,0,0,0,.08,4.16,7.62,7.62,0,0,0,6.05,6.48c.48.09.68.26.61.75a5.24,5.24,0,0,0,0,1,.93.93,0,0,0,1,.93.91.91,0,0,0,.9-.91c0-.19,0-.38,0-.58V15.81a5.64,5.64,0,0,1,1.42-4,5.38,5.38,0,0,1,5.75-1.39,5.3,5.3,0,0,1,3.41,4.46c0,.54.06,1.07.06,1.6V37.65c0,.21,0,.42,0,.63a.9.9,0,0,0,.9.85.89.89,0,0,0,.93-.82,6.63,6.63,0,0,0,0-1.26c0-.36.11-.46.45-.53a7.55,7.55,0,0,0,6.13-6,7.83,7.83,0,0,0,.17-1.81c0-3.09,0-6.17,0-9.26A3.21,3.21,0,0,1,55,16.12,3.13,3.13,0,0,1,57.83,19c.08,1.64.05,3.28.05,4.92C57.88,25.71,57.89,27.56,57.86,29.41Z"/>
        <path class="cls-2" d="M35,20.69a.92.92,0,0,0-.9.87c0,.32,0,.64,0,1s0,.68,0,1a.91.91,0,0,0,.9.86.89.89,0,0,0,.92-.83,20,20,0,0,0,0-2A.91.91,0,0,0,35,20.69Z"/>
        <path class="cls-2" d="M40.92,27.78a.91.91,0,0,0-1.82,0,20,20,0,0,0,0,2,.89.89,0,0,0,.92.83.9.9,0,0,0,.9-.86c0-.34,0-.68,0-1S41,28.1,40.92,27.78Z"/>
        <path class="cls-2" d="M20.3,33.77a.91.91,0,0,0-.88.88c0,.32,0,.64,0,1h0c0,.34,0,.68,0,1a.88.88,0,0,0,.9.85.85.85,0,0,0,.91-.79,16.51,16.51,0,0,0,0-2.11A.89.89,0,0,0,20.3,33.77Z"/>
        <path class="cls-2" d="M55.56,23.42a.88.88,0,0,0-.89-.86.86.86,0,0,0-.91.78,13.1,13.1,0,0,0,0,2.17.84.84,0,0,0,.91.77.88.88,0,0,0,.89-.86c0-.34,0-.68,0-1S55.59,23.74,55.56,23.42Z"/>
        <path class="cls-2" d="M37.48,58.07a.88.88,0,0,0-.9.84c0,.34,0,.69,0,1h0a7.08,7.08,0,0,0,0,1,.85.85,0,0,0,.88.8A.87.87,0,0,0,38.4,61c0-.68,0-1.36,0-2.05A.88.88,0,0,0,37.48,58.07Z"/>
      </g>
    </g>
  </g>
</svg>
