<svg xmlns="http://www.w3.org/2000/svg" width="75" height="75" viewBox="0 0 75 75">
  <defs>
    <style>
      .cls-1 {
        fill: none;
      }

      .cls-2 {
        fill: #9e9e9e;
        stroke: #9e9e9e;
        stroke-miterlimit: 10;
      }
    </style>
  </defs>
  <title>icon3</title>
  <g id="Camada_2" data-name="Camada 2">
    <g id="Logo">
      <rect class="cls-1" width="75" height="75"/>
      <g>
        <path class="cls-2" d="M66.43,59.14a4.44,4.44,0,0,1-.78,1.14,2.39,2.39,0,0,1-1.56.56h-6a2.26,2.26,0,0,1-2.35-2.35c0-1,0-2.11,0-3.16,0-.46-.08-.59-.57-.59-3.3,0-6.59,0-9.89,0q-12.68,0-25.37,0c-.45,0-.61.08-.59.57,0,1.05,0,2.11,0,3.16a2.27,2.27,0,0,1-2.38,2.38h-6A2.24,2.24,0,0,1,8.57,58.5q0-10.89,0-21.76a5.36,5.36,0,0,1,4-5.16c.46-.13.56-.32.55-.76,0-2.18.06-4.37,0-6.55a6.18,6.18,0,0,1,2.82-5.46,20.08,20.08,0,0,1,7.22-3.06,61.92,61.92,0,0,1,17.49-1.52,52,52,0,0,1,12.58,1.86,17.13,17.13,0,0,1,6.49,3.15,5.91,5.91,0,0,1,2.28,4.87c-.07,2.28,0,4.56,0,6.84,0,.31,0,.48.4.59a5.33,5.33,0,0,1,4,4.21s.07.07.1.11Zm-29-6.67q13,0,26.05,0c.57,0,.68-.16.65-.68,0-.87,0-1.74,0-2.6,0-.49-.14-.58-.59-.58-7,0-14,0-21,0-.21,0-.42,0-.62,0a1.09,1.09,0,0,1-1-1.11,1.12,1.12,0,0,1,1-1.14,5.19,5.19,0,0,1,.56,0H63.61c.29,0,.57.09.57-.42,0-3.07,0-6.14,0-9.21A3,3,0,0,0,62.51,34a4,4,0,0,0-2.07-.45H31.85c-5.82,0-11.64,0-17.46,0a3.41,3.41,0,0,0-3.57,3.56c.08,2.88,0,5.76,0,8.64,0,.52.14.61.62.61q10.53,0,21.07,0a5.42,5.42,0,0,1,.57,0,1.14,1.14,0,0,1,1,1.14,1.11,1.11,0,0,1-1.06,1.11c-.2,0-.41,0-.62,0H11.37c-.41,0-.56.07-.54.51,0,.89,0,1.77,0,2.66,0,.52.09.68.65.68Q24.49,52.46,37.47,52.47Zm.31-36c-2.13,0-4,.07-5.82.22a43.44,43.44,0,0,0-10.77,2,12.37,12.37,0,0,0-4.66,2.55,3.1,3.1,0,0,0-1.16,2.19c0,2.52,0,5,0,7.57,0,.22,0,.33.31.33q1.18,0,2.37,0c.28,0,.35-.1.35-.36,0-.6,0-1.21,0-1.81A3.28,3.28,0,0,1,21.62,26c3.38,0,6.75,0,10.12,0a3.29,3.29,0,0,1,3.18,2.62A11.07,11.07,0,0,1,35,31c0,.3.09.38.39.38H40c.31,0,.39-.1.38-.39,0-.56,0-1.13,0-1.69A3.32,3.32,0,0,1,43.62,26q5,0,10.05,0A3.29,3.29,0,0,1,57,29.23c0,.56,0,1.13,0,1.69,0,.33.1.42.42.41.6,0,1.2,0,1.8,0,.37,0,.47-.09.47-.46,0-2.39,0-4.79,0-7.18a3,3,0,0,0-.59-1.79,6.18,6.18,0,0,0-1.51-1.42,17.43,17.43,0,0,0-5.14-2.24A55.78,55.78,0,0,0,37.78,16.43ZM26.7,31.32H31c.56,0,1.33.2,1.63-.09s.11-1.13.11-1.73a1.08,1.08,0,0,0-1.23-1.2c-.88,0-1.76,0-2.65,0-2.29,0-4.59,0-6.88,0-1,0-1.32.36-1.32,1.33,0,.42,0,.83,0,1.24s.12.47.47.46C23,31.31,24.84,31.32,26.7,31.32Zm22,0h5.58c.33,0,.48,0,.45-.42s0-1,0-1.47a1,1,0,0,0-1.11-1.14q-4.9,0-9.82,0a1.08,1.08,0,0,0-1.15,1.17c0,.43,0,.87,0,1.3s.07.57.54.57C45,31.31,46.82,31.32,48.67,31.32ZM13.93,54.74c-.88,0-1.76,0-2.65,0-.32,0-.46,0-.45.42,0,1,0,2,0,3,0,.37.13.43.45.42h5.3c.33,0,.47,0,.46-.42,0-1,0-2,0-3,0-.37-.13-.43-.46-.42C15.7,54.76,14.82,54.74,13.93,54.74Zm47.19,0H58.36c-.28,0-.4,0-.39.37,0,1,0,2.07,0,3.1,0,.32.12.36.39.36h5.42c.35,0,.39-.13.39-.42,0-1,0-2,0-3,0-.38-.13-.43-.45-.42Z"/>
        <path class="cls-2" d="M37.51,48.64a1.12,1.12,0,0,1-1.14-1.15,1.14,1.14,0,0,1,1.18-1.11,1.13,1.13,0,0,1,0,2.26Z"/>
      </g>
    </g>
  </g>
</svg>
